# xmcd
#
# Track frame offsets:
#	150
#	14073
#	28775
#	44308
#	58288
#	73961
#	89608
#	106569
#	119779
#	133244
#	149447
#
# Disc length: 2185 seconds
#
# Revision: 1
# Processed by: cddbd v1.5.2PL0 Copyright (c) Steve Scherf et al.
# Submitted via: audiograbber 1.83.01
#
DISCID=b008870b
DTITLE=Haggard, Merle - Last of the Breed Volume 1 (w Nelson and Price)
DYEAR=2007
DGENRE=Country
TTITLE0=My Life's Been a Pleasure
TTITLE1=My Mary
TTITLE2=Back to Earth
TTITLE3=Heartaches by the Number (w Vince Gill)
TTITLE4=Mom and Dad's Waltz
TTITLE5=Some Other World
TTITLE6=Why Me (w Kris Kristofferson)
TTITLE7=Lost Highway
TTITLE8=I Love You a Thousand Ways
TTITLE9=Please Don't Leave Me Any More Darlin'
TTITLE10=I Gotta Have My Baby Back
EXTD=
EXTT0=
EXTT1=
EXTT2=
EXTT3=
EXTT4=
EXTT5=
EXTT6=
EXTT7=
EXTT8=
EXTT9=
EXTT10=
PLAYORDER=
